<svg width="24" height="24" viewBox="0 0 24 24" fill="none" xmlns="http://www.w3.org/2000/svg">
<path d="M17.9999 14.25C18.4141 14.25 18.7499 14.5858 18.7499 15V17.25H20.9999C21.4141 17.25 21.7499 17.5858 21.7499 18C21.7499 18.4142 21.4141 18.75 20.9999 18.75H18.7499V21C18.7499 21.4142 18.4141 21.75 17.9999 21.75C17.5858 21.7499 17.2499 21.4142 17.2499 21V18.75H14.9999C14.5858 18.7499 14.2499 18.4142 14.2499 18C14.2499 17.5858 14.5858 17.2501 14.9999 17.25H17.2499V15C17.2499 14.5858 17.5858 14.2501 17.9999 14.25ZM15.6113 3C17.5666 3 19.2361 4.41402 19.5575 6.34277L20.4726 11.8359C20.574 12.4453 20.1041 13 19.4863 13H16.9999C14.7909 13.0001 12.9999 14.7909 12.9999 17V20C12.9999 20.5523 12.5522 21 11.9999 21H6.72161C4.25016 20.9998 2.37022 18.7806 2.7763 16.3428L4.44329 6.34277C4.76475 4.41403 6.43326 3.00002 8.3886 3H15.6113ZM14.9999 5.25C14.5858 5.25005 14.2499 5.58582 14.2499 6V7C14.2499 8.24264 13.2426 9.25 11.9999 9.25C10.7573 9.24995 9.74993 8.24261 9.74993 7V6C9.74993 5.58579 9.41414 5.25 8.99993 5.25C8.58576 5.25005 8.24993 5.58582 8.24993 6V7C8.24993 9.07103 9.92891 10.7499 11.9999 10.75C14.071 10.75 15.7499 9.07107 15.7499 7V6C15.7499 5.58579 15.4141 5.25 14.9999 5.25Z" fill="black"/>
</svg>
